<svg width="24" height="25" viewBox="0 0 24 25" xmlns="http://www.w3.org/2000/svg">
<path d="M19.2742 5.22733C18.9711 4.92422 18.4948 4.92422 18.2133 5.22733C17.9102 5.53043 17.9102 6.00675 18.2133 6.28825C19.8588 7.95524 20.7682 10.1421 20.7682 12.502C20.7682 14.8403 19.8588 17.0487 18.1917 18.6941C17.8886 18.9972 17.8886 19.4736 18.1917 19.7551C18.3433 19.9067 18.5381 19.9716 18.733 19.9716C18.9278 19.9716 19.1226 19.9067 19.2742 19.7551C21.2227 17.8066 22.2837 15.23 22.2837 12.4804C22.2837 9.75233 21.2227 7.15432 19.2742 5.2274V5.22733Z" />
<path d="M3.23032 12.5019C3.23032 10.142 4.13965 7.95519 5.8068 6.30974C6.1099 6.00663 6.1099 5.53031 5.8068 5.24881C5.50369 4.94571 5.02737 4.94571 4.74587 5.24881C2.77577 7.15412 1.71484 9.75217 1.71484 12.5018C1.71484 15.2515 2.77577 17.8279 4.7243 19.7765C4.87593 19.9281 5.07074 19.993 5.26557 19.993C5.46039 19.993 5.6552 19.9281 5.80684 19.7765C6.10994 19.4734 6.10994 18.997 5.80684 18.7155C4.13969 17.0485 3.23036 14.8401 3.23036 12.5018L3.23032 12.5019Z" />
<path d="M16.7199 7.78201C16.4168 7.47891 15.9405 7.47891 15.659 7.78201C15.3559 8.08512 15.3559 8.56144 15.659 8.84294C16.6332 9.81718 17.1745 11.1163 17.1745 12.4802C17.1745 13.8442 16.6332 15.1432 15.659 16.1174C15.3559 16.4205 15.3559 16.8969 15.659 17.1784C15.8106 17.33 16.0054 17.3949 16.2002 17.3949C16.3951 17.3949 16.5899 17.33 16.7415 17.1784C17.9972 15.9226 18.69 14.2554 18.69 12.4801C18.6685 10.7263 17.9756 9.03756 16.7199 7.78194V7.78201Z"/>
<path d="M6.84693 12.5017C6.84693 11.116 7.3882 9.83867 8.36244 8.86442C8.66555 8.56132 8.66555 8.085 8.36244 7.8035C8.05934 7.5004 7.58302 7.5004 7.30152 7.8035C6.04577 9.05924 5.35303 10.7264 5.35303 12.5234C5.35303 14.2988 6.0675 16.0091 7.32328 17.2432C7.47491 17.3949 7.66973 17.4598 7.86455 17.4598C8.05937 17.4598 8.25419 17.3949 8.40582 17.2432C8.70892 16.9401 8.68733 16.4638 8.40582 16.1823C7.38824 15.1866 6.84697 13.8659 6.84697 12.5019L6.84693 12.5017Z" />
<path d="M11.1317 9.66519C10.677 9.36208 10.0708 9.68678 10.0708 10.2281V14.7531C10.0708 15.2943 10.677 15.619 11.1317 15.316L14.531 13.0426C14.9424 12.7611 14.9424 12.1766 14.531 11.8951L11.1317 9.66519Z"/>
</svg>
