<svg width="20" height="20" viewBox="0 0 20 20" xmlns="http://www.w3.org/2000/svg">
<g clip-path="url(#clip0_218_731)">
<path d="M7.22656 9.74917C7.8697 11.0773 8.94366 12.1485 10.2734 12.7882C10.3715 12.8347 10.48 12.8548 10.5882 12.8466C10.6965 12.8383 10.8007 12.8021 10.8906 12.7414L12.8437 11.4367C12.93 11.3781 13.0298 11.3424 13.1336 11.3329C13.2374 11.3233 13.342 11.3402 13.4375 11.382L17.0938 12.9523C17.2187 13.0043 17.3231 13.096 17.3909 13.2131C17.4586 13.3303 17.486 13.4665 17.4688 13.6007C17.3529 14.5052 16.9114 15.3365 16.2269 15.939C15.5424 16.5415 14.6619 16.874 13.75 16.8742C10.9321 16.8742 8.22956 15.7548 6.23699 13.7622C4.24442 11.7696 3.125 9.0671 3.125 6.24917C3.12521 5.33729 3.45767 4.45673 4.06018 3.77226C4.66269 3.08779 5.49395 2.64631 6.39844 2.53042C6.53269 2.51318 6.66888 2.54054 6.78605 2.6083C6.90322 2.67606 6.99487 2.78046 7.04687 2.90542L8.61719 6.56948C8.65802 6.66351 8.67511 6.76613 8.66693 6.86831C8.65876 6.97049 8.62558 7.06909 8.57031 7.15542L7.26562 9.1398C7.20754 9.22955 7.17345 9.3327 7.16661 9.43939C7.15977 9.54608 7.18041 9.65274 7.22656 9.74917V9.74917Z" stroke-width="1.5" stroke-linecap="round" stroke-linejoin="round"/>
</g>
<defs>
<clipPath id="clip0_218_731">
<rect width="20" height="20"/>
</clipPath>
</defs>
</svg>
