<svg width="24" height="24" viewBox="0 0 24 24" fill="none" xmlns="http://www.w3.org/2000/svg">
<g clip-path="url(#clip0_218_703)">
<path d="M3.73145 21.0103C3.73259 21.1423 3.76856 21.2717 3.83573 21.3854C3.9029 21.499 3.99888 21.5929 4.11398 21.6576C4.22907 21.7223 4.3592 21.7555 4.49122 21.7537C4.62323 21.752 4.75245 21.7155 4.86582 21.6478L20.5971 12.6384C20.7128 12.5769 20.8096 12.4851 20.8771 12.3728C20.9446 12.2605 20.9803 12.132 20.9803 12.0009C20.9803 11.8699 20.9446 11.7413 20.8771 11.629C20.8096 11.5167 20.7128 11.4249 20.5971 11.3634L4.86582 2.35405C4.75245 2.28638 4.62323 2.24984 4.49122 2.24811C4.3592 2.24639 4.22907 2.27954 4.11398 2.34422C3.99888 2.4089 3.9029 2.50282 3.83573 2.61648C3.76856 2.73015 3.73259 2.85953 3.73145 2.99155V21.0103Z" stroke="white" stroke-width="1.7" stroke-linecap="round" stroke-linejoin="round"/>
<path d="M3.95605 2.45703L16.4904 14.9914" stroke="white" stroke-width="1.7" stroke-linecap="round" stroke-linejoin="round"/>
<path d="M3.95605 21.5441L16.4904 9.00977" stroke="white" stroke-width="1.7" stroke-linecap="round" stroke-linejoin="round"/>
</g>
<defs>
<clipPath id="clip0_218_703">
<rect width="24" height="24" fill="white"/>
</clipPath>
</defs>
</svg>
