<svg width="24" height="24" viewBox="0 0 24 24" fill="none" xmlns="http://www.w3.org/2000/svg">
<g clip-path="url(#clip0_567_1847)">
<path d="M12.0009 15C11.511 15 0.000976562 15.034 0.000976562 17.9891C0.000976562 20.3089 7.01975 20.8256 10.013 20.9403L9.02896 21.8952C8.76952 22.1462 8.76834 22.5553 9.02619 22.8086V22.8092C9.28404 23.0623 9.70327 23.064 9.96255 22.8119L11.8483 20.983C12.1075 20.7315 12.1305 20.3035 11.8952 20.0305C11.4187 19.478 10.6483 18.591 10.1697 18.0393C9.93323 17.7679 9.51537 17.7335 9.23653 17.9651C8.95808 18.1962 8.92362 18.6035 9.16048 18.8756L9.82631 19.6411C5.60444 19.4736 2.97027 18.8546 1.88227 18.3514C1.55174 18.1988 1.54837 17.7752 1.8789 17.6214C3.18993 17.0145 6.69633 16.2915 12.0015 16.2915C17.3066 16.2915 20.813 17.0147 22.1235 17.6214C22.4541 17.7746 22.4507 18.1988 22.1196 18.3514C20.984 18.8758 18.1692 19.5287 13.6184 19.6616C13.2532 19.6724 12.9617 19.9663 12.9684 20.3234C12.9749 20.6799 13.2764 20.9641 13.6421 20.9525C16.3963 20.865 24.001 20.4036 24.001 17.9889C24.0004 15.0342 12.4908 15 12.0005 15L12.0009 15Z" fill="#003087"/>
<path d="M3.00102 11.5155V10.0675H3.14238C3.81625 10.5131 4.44723 10.7352 5.03565 10.7352C5.50055 10.7352 5.86399 10.6242 6.12562 10.4014C6.38742 10.1788 6.51833 9.85334 6.51833 9.42512C6.51833 9.08535 6.41611 8.82261 6.21168 8.63758C6.00706 8.45256 5.58435 8.35971 4.94292 8.35971H4.55458V7.20212H4.92088C5.90939 7.20212 6.40374 6.8538 6.40374 6.15691C6.40374 5.86455 6.29772 5.64265 6.08588 5.49164C5.87404 5.34019 5.57251 5.26469 5.18113 5.26469C4.65428 5.26469 4.03663 5.4822 3.32759 5.9172H3.19517V4.48462C3.94258 4.16176 4.66188 4 5.35307 4C6.17097 4 6.78959 4.17339 7.2087 4.52018C7.62782 4.86697 7.83758 5.32721 7.83758 5.90185C7.83758 6.33007 7.72131 6.70495 7.48895 7.02607C7.2564 7.3474 6.94615 7.56227 6.55778 7.67111V7.74244C7.00198 7.8344 7.35364 8.03392 7.61263 8.34163C7.87159 8.64935 8.00098 9.04618 8.00098 9.53232C8.00098 10.2799 7.75399 10.8784 7.25964 11.327C6.76529 11.7757 6.09613 12 5.25144 12C4.43355 11.9996 3.68327 11.8378 3.00098 11.5154L3.00102 11.5155Z" fill="#003087"/>
<path d="M14.312 4.12777V5.44298H14.1648C13.8443 5.28671 13.4566 5.20856 13.0042 5.20856C11.6229 5.20856 10.8526 5.93596 10.6938 7.3908C11.3627 6.98956 11.9674 6.78916 12.5077 6.78916C13.2549 6.78916 13.8565 7.00493 14.3145 7.43666C14.7719 7.86841 15.001 8.47355 15.001 9.25191C15.001 10.061 14.7268 10.721 14.1775 11.2324C13.6284 11.7443 12.9233 12 12.0618 12C11.0721 12 10.3144 11.6931 9.78914 11.0792C9.26384 10.4659 9.00098 9.57979 9.00098 8.42068C9.00098 6.99657 9.34805 5.9037 10.0424 5.14203C10.7368 4.38081 11.744 4 13.0651 4C13.5313 4.00044 13.9471 4.0428 14.3121 4.12775L14.312 4.12777ZM10.6888 8.22203L10.6835 8.431C10.68 8.54294 10.6785 8.63338 10.6785 8.7012C10.6785 10.1358 11.1414 10.8527 12.067 10.8527C12.4385 10.8527 12.7385 10.7206 12.9663 10.455C13.1947 10.19 13.3083 9.81777 13.3083 9.33863C13.3083 8.40377 12.8232 7.93649 11.8541 7.93649C11.4761 7.93671 11.0874 8.03175 10.6888 8.22205L10.6888 8.22203Z" fill="#003087"/>
<path d="M19.0008 12C17.9672 12 17.2088 11.6828 16.7257 11.0493C16.2421 10.4149 16.001 9.39771 16.001 7.99747C16.001 6.6106 16.2432 5.59759 16.7282 4.95861C17.2133 4.31941 17.9704 4 19.0008 4C20.0311 4 20.7886 4.31873 21.2737 4.95597C21.7584 5.59321 22.001 6.60555 22.001 7.99241C22.001 9.40316 21.7603 10.4237 21.2787 11.0543C20.7971 11.685 20.0378 11.9999 19.0007 11.9999L19.0008 12ZM19.0008 5.1876C18.5292 5.1876 18.192 5.41106 17.9885 5.85822C17.7845 6.30514 17.683 7.02009 17.683 8.00214C17.683 8.98115 17.7871 9.69475 17.9958 10.1436C18.2048 10.5923 18.5398 10.8167 19.001 10.8167C19.4624 10.8167 19.7975 10.5893 20.0062 10.1338C20.2151 9.6781 20.3195 8.96446 20.3195 7.99208C20.3195 7.01307 20.2175 6.30097 20.014 5.85558C19.8096 5.41042 19.4722 5.1876 19.0008 5.1876H19.0008Z" fill="#003087"/>
<path d="M22.3828 2.65977C22.3828 3.35734 21.8173 3.92288 21.1196 3.92288C20.422 3.92288 19.8564 3.35734 19.8564 2.65977C19.8564 1.96202 20.422 1.39648 21.1196 1.39648C21.8173 1.39648 22.3828 1.96202 22.3828 2.65977Z" fill="#003087"/>
</g>
<defs>
<clipPath id="clip0_567_1847">
<rect width="24" height="24" fill="white"/>
</clipPath>
</defs>
</svg>
