<svg width="20" height="20" viewBox="0 0 20 20" fill="none" xmlns="http://www.w3.org/2000/svg">
<g clip-path="url(#clip0_567_1823)">
<path d="M9.99984 18.3327C5.39734 18.3327 1.6665 14.6018 1.6665 9.99935C1.6665 5.39685 5.39734 1.66602 9.99984 1.66602C14.6023 1.66602 18.3332 5.39685 18.3332 9.99935C18.3332 14.6018 14.6023 18.3327 9.99984 18.3327ZM7.40817 10.9743L7.419 10.9685L8.144 13.3602C8.23734 13.6193 8.36567 13.666 8.5215 13.6443C8.67817 13.6235 8.76067 13.5393 8.86317 13.441L9.85317 12.4843L11.9782 14.0577C12.3665 14.2718 12.6457 14.161 12.7423 13.6977L14.1232 7.17935C14.2757 6.57268 14.009 6.32935 13.5382 6.52268L5.42734 9.65602C4.874 9.87768 4.87734 10.1877 5.32734 10.3252L7.40817 10.9752V10.9743Z" />
</g>
<defs>
<clipPath id="clip0_567_1823">
<rect width="20" height="20" />
</clipPath>
</defs>
</svg>
