<svg width="24" height="24" viewBox="0 0 24 24" fill="none" xmlns="http://www.w3.org/2000/svg">
<g clip-path="url(#clip0_218_686)">
<path d="M8.2501 12.6464L16.6782 20.062C16.7756 20.1483 16.8938 20.2077 17.0211 20.2344C17.1484 20.2612 17.2805 20.2544 17.4043 20.2147C17.5282 20.175 17.6396 20.1037 17.7276 20.0079C17.8157 19.9121 17.8772 19.7951 17.9063 19.6683L21.4313 4.27454C21.4609 4.14197 21.4539 4.00386 21.4111 3.87495C21.3683 3.74605 21.2913 3.63119 21.1883 3.54264C21.0853 3.45408 20.9602 3.39516 20.8263 3.37216C20.6925 3.34916 20.5549 3.36294 20.4282 3.41204L3.12197 10.2089C2.42822 10.4808 2.52197 11.4933 3.25322 11.6433L8.2501 12.6464Z" stroke="white" stroke-width="1.7" stroke-linecap="round" stroke-linejoin="round"/>
<path d="M8.25 12.6473L21.0094 3.43164" stroke="white" stroke-width="1.7" stroke-linecap="round" stroke-linejoin="round"/>
<path d="M12.4594 16.3496L9.53437 19.2746C9.43002 19.3806 9.29653 19.4531 9.15085 19.483C9.00517 19.5129 8.85388 19.4989 8.71622 19.4426C8.57856 19.3863 8.46073 19.2904 8.37772 19.167C8.2947 19.0436 8.25025 18.8983 8.25 18.7496V12.6465" stroke="white" stroke-width="1.7" stroke-linecap="round" stroke-linejoin="round"/>
</g>
<defs>
<clipPath id="clip0_218_686">
<rect width="24" height="24" fill="white"/>
</clipPath>
</defs>
</svg>
