<svg width="32" height="32" viewBox="0 0 32 32" fill="none" xmlns="http://www.w3.org/2000/svg">
<g clip-path="url(#clip0_281_2824)">
<path d="M25.8345 16.5544L11.7025 25.9758C11.6021 26.0426 11.4855 26.0809 11.365 26.0867C11.2446 26.0924 11.1248 26.0654 11.0185 26.0085C10.9122 25.9516 10.8233 25.8669 10.7613 25.7634C10.6993 25.66 10.6666 25.5417 10.6665 25.4211V6.57843C10.6666 6.45784 10.6993 6.33953 10.7613 6.23609C10.8233 6.13265 10.9122 6.04796 11.0185 5.99104C11.1248 5.93413 11.2446 5.90711 11.365 5.91287C11.4855 5.91863 11.6021 5.95696 11.7025 6.02377L25.8345 15.4451C25.9258 15.506 26.0007 15.5885 26.0525 15.6852C26.1042 15.782 26.1313 15.89 26.1313 15.9998C26.1313 16.1095 26.1042 16.2176 26.0525 16.3143C26.0007 16.4111 25.9258 16.4936 25.8345 16.5544Z" fill="white"/>
</g>
<defs>
<clipPath id="clip0_281_2824">
<rect width="32" height="32" fill="white"/>
</clipPath>
</defs>
</svg>
