<svg width="20" height="20" viewBox="0 0 20 20" fill="none" xmlns="http://www.w3.org/2000/svg">
<g clip-path="url(#clip0_567_1829)">
<path d="M17.9523 5.41565C18.3332 6.90065 18.3332 10.0007 18.3332 10.0007C18.3332 10.0007 18.3332 13.1007 17.9523 14.5857C17.7407 15.4065 17.1215 16.0523 16.3373 16.2707C14.9132 16.6673 9.99984 16.6673 9.99984 16.6673C9.99984 16.6673 5.089 16.6673 3.66234 16.2707C2.87484 16.049 2.2565 15.404 2.04734 14.5857C1.6665 13.1007 1.6665 10.0007 1.6665 10.0007C1.6665 10.0007 1.6665 6.90065 2.04734 5.41565C2.259 4.59482 2.87817 3.94898 3.66234 3.73065C5.089 3.33398 9.99984 3.33398 9.99984 3.33398C9.99984 3.33398 14.9132 3.33398 16.3373 3.73065C17.1248 3.95232 17.7432 4.59732 17.9523 5.41565ZM8.33317 12.9173L13.3332 10.0007L8.33317 7.08398V12.9173Z" fill="white" fill-opacity="0.6"/>
</g>
<defs>
<clipPath id="clip0_567_1829">
<rect width="20" height="20" fill="white"/>
</clipPath>
</defs>
</svg>
